<?xml version="1.0" encoding="utf-8"?>
<!-- Generator: Adobe Illustrator 23.0.1, SVG Export Plug-In . SVG Version: 6.00 Build 0)  -->
<svg version="1.1" xmlns="http://www.w3.org/2000/svg" xmlns:xlink="http://www.w3.org/1999/xlink" x="0px" y="0px"
	 viewBox="0 0 1920 1080" style="enable-background:new 0 0 1920 1080;" xml:space="preserve">
<style type="text/css">
	.st0{display:none;}
	.st1{display:inline;fill:#000D19;}
	.st2{display:inline;fill:#FFFFFF;stroke:#000000;stroke-miterlimit:10;}
	.st3{fill:#FFFFFF;stroke:#000000;stroke-miterlimit:10;}
	.st4{display:inline;}
	.st5{fill:#FF6D00;stroke:#000000;stroke-width:7;stroke-miterlimit:10;}
	.st6{fill:#FFFFFF;}
	.st7{fill:#515151;stroke:#000000;stroke-width:8;stroke-miterlimit:10;}
	.st8{fill:#FF0000;stroke:#000000;stroke-width:8;stroke-miterlimit:10;}
	.st9{fill:#707070;}
	.st10{fill:none;stroke:#000000;stroke-width:8;stroke-miterlimit:10;}
	.st11{opacity:0.2;fill:#88C7FF;}
	.st12{fill:none;stroke:#FFFFFF;stroke-width:8;stroke-miterlimit:10;}
	.st13{fill:#9B9B9B;}
	.st14{fill:#293D5B;}
	.st15{fill:none;stroke:#000000;stroke-width:7;stroke-miterlimit:10;}
	.st16{fill:none;stroke:#000000;stroke-width:4;stroke-miterlimit:10;}
	.st17{fill:none;stroke:#B5B5B5;stroke-width:8;stroke-miterlimit:10;}
	.st18{fill:#AF5700;stroke:#000000;stroke-width:8;stroke-miterlimit:10;}
	.st19{fill:#FF6D00;stroke:#000000;stroke-width:8;stroke-miterlimit:10;}
	.st20{clip-path:url(#Fill_14_);fill:#232323;}
	.st21{clip-path:url(#Fill_14_);fill:#515151;stroke:#000000;stroke-width:8;stroke-miterlimit:10;}
	.st22{clip-path:url(#XMLID_8_);fill:none;stroke:#5B3304;stroke-width:8;stroke-miterlimit:10;}
	.st23{clip-path:url(#XMLID_9_);fill:#1A33A0;}
	.st24{clip-path:url(#XMLID_9_);fill:none;stroke:#000000;stroke-width:8;stroke-miterlimit:10;}
	.st25{clip-path:url(#XMLID_9_);fill:#343A56;stroke:#020202;stroke-width:8;stroke-miterlimit:10;}
	.st26{clip-path:url(#XMLID_9_);fill:#1D34BF;stroke:#020202;stroke-width:8;stroke-miterlimit:10;}
	.st27{fill:#1F41CC;}
	.st28{fill:#666666;stroke:#000000;stroke-width:8;stroke-miterlimit:10;}
	.st29{fill:#3D3D3D;stroke:#000000;stroke-width:8;stroke-miterlimit:10;}
	.st30{fill:#1E1E1E;stroke:#000000;stroke-width:8;stroke-miterlimit:10;}
	.st31{fill:#AA0000;stroke:#000000;stroke-width:8;stroke-miterlimit:10;}
	.st32{fill:#3A0000;}
	.st33{display:inline;fill:none;stroke:#B5B5B5;stroke-width:3;stroke-miterlimit:10;}
	.st34{display:inline;fill:#AF5700;}
	.st35{display:inline;fill:#FF6D00;}
	.st36{display:inline;fill:#FFFFFF;}
	.st37{clip-path:url(#Fill_15_);fill:#232323;}
	.st38{clip-path:url(#Fill_15_);fill:#515151;}
	.st39{display:inline;fill:none;}
	.st40{display:inline;opacity:0.2;fill:#88C7FF;}
	.st41{display:inline;fill:none;stroke:#FFFFFF;stroke-width:2;stroke-miterlimit:10;}
	.st42{clip-path:url(#XMLID_10_);fill:none;}
	.st43{clip-path:url(#XMLID_11_);fill:#1A33A0;}
	.st44{clip-path:url(#XMLID_11_);fill:none;}
	.st45{clip-path:url(#XMLID_11_);fill:#343A56;}
	.st46{clip-path:url(#XMLID_11_);fill:#1D34BF;}
	.st47{display:inline;fill:#1F41CC;}
	.st48{display:inline;fill:#666666;}
	.st49{display:inline;fill:#3D3D3D;}
	.st50{display:inline;fill:#1E1E1E;}
	.st51{fill:#AA0000;}
	.st52{fill:#FF0000;}
	.st53{display:inline;fill:#3A0000;}
	.st54{clip-path:url(#Fill_16_);fill:#232323;}
	.st55{clip-path:url(#Fill_16_);fill:#515151;}
	.st56{display:inline;fill:none;stroke:#FFFFFF;stroke-miterlimit:10;}
	.st57{clip-path:url(#XMLID_12_);fill:none;}
	.st58{clip-path:url(#XMLID_13_);fill:#1A33A0;}
	.st59{clip-path:url(#XMLID_13_);fill:none;}
	.st60{clip-path:url(#XMLID_13_);fill:#343A56;}
	.st61{clip-path:url(#XMLID_13_);fill:#1D34BF;}
</style>
<g id="Fondo" class="st0">
	<rect class="st1" width="1920" height="1080"/>
</g>
<g id="Capa_4">
</g>
<g id="Ovni_1" class="st0">
	<path id="Chasis_2_" class="st2" d="M1089.82,447.65l-31.51,43.3c-27.08,37.22-73.38,60.72-123.71,61.61
		c-1.21,0.02-283.76,0.02-284.97,0c-50.33-0.89-96.63-24.4-123.71-61.61l-31.51-43.3c-10.28-8.42-3.47-23.5,10.61-23.5h574.2
		C1093.3,424.14,1100.11,439.23,1089.82,447.65z"/>
	<path id="Propulsor" class="st3" d="M963.71,473.14v2.5c0,25.47-20.65,46.11-46.11,46.11h-94.67c-3.12,0-5.64,2.53-5.64,5.64v8.52
		c0,2.24,1.33,4.27,3.38,5.17l58.86,25.8c5.6,2.45,3.85,10.81-2.27,10.81h-43.3h-83.66h-43.3c-6.11,0-7.86-8.36-2.27-10.81
		l58.86-25.8c2.05-0.9,3.38-2.93,3.38-5.17v-8.52c0-3.12-2.53-5.64-5.64-5.64h-94.67c-25.47,0-46.11-20.65-46.11-46.11v-2.5"/>
	<path id="Chasis_1_" class="st2" d="M1113.21,445.45L1015.59,370c-26.08-20.16-60.47-31.38-96.2-31.38H664.83
		c-35.73,0-70.12,11.22-96.2,31.38l-97.61,75.46c-11.09,8.57-3.74,23.93,11.44,23.93h619.3
		C1116.95,469.38,1124.3,454.03,1113.21,445.45z"/>
	<rect id="Junta" x="639.73" y="318.98" class="st2" width="304.76" height="19.64"/>
	<path id="Capsula" class="st2" d="M927.1,216.64c0-46.05-60.43-110.38-134.98-110.38s-134.98,64.33-134.98,110.38v102.34H927.1
		V216.64z"/>
</g>
<g id="UFO" class="st0">
	<g id="Personaje_1_" class="st4">
		<path id="Fill_3_" class="st5" d="M1152.07,740.37v212.41c0,5.05-4.1,9.15-9.15,9.15h-52.73c-5.05,0-9.15-4.1-9.15-9.15v-60.63
			c0-5.05-4.1-9.15-9.15-9.15h-26.1c-5.05,0-9.15,4.1-9.15,9.15v60.63c0,5.05-4.1,9.15-9.15,9.15h-52.73c-5.05,0-9.15-4.1-9.15-9.15
			V740.37c0-32.34,26.22-58.56,58.56-58.56h69.37C1125.85,681.81,1152.07,708.03,1152.07,740.37z"/>
		<path class="st6" d="M1103.53,775.72L1103.53,775.72c-4.19,0-7.58-3.39-7.58-7.58v-37.89c0-4.19,3.39-7.58,7.58-7.58l0,0
			c4.19,0,7.58,3.39,7.58,7.58v37.89C1111.11,772.33,1107.71,775.72,1103.53,775.72z"/>
		<path class="st6" d="M1044.25,775.72L1044.25,775.72c-4.19,0-7.58-3.39-7.58-7.58v-37.89c0-4.19,3.39-7.58,7.58-7.58l0,0
			c4.19,0,7.58,3.39,7.58,7.58v37.89C1051.83,772.33,1048.43,775.72,1044.25,775.72z"/>
	</g>
	<g id="Cannon" class="st4">
		<rect x="1204.37" y="862.32" class="st7" width="139.96" height="63.97"/>
		<rect x="1331.44" y="852.32" class="st8" width="25.77" height="83.98"/>
	</g>
	<g id="Propulsor_5_" class="st4">
		<path id="Fill_1_" class="st9" d="M1239.07,906.48l-19.08,43.3c-16.4,37.22-44.43,60.72-74.9,61.61
			c-0.74,0.02-171.8,0.02-172.53,0c-30.47-0.89-58.5-24.4-74.9-61.61l-19.08-43.3c-6.22-8.42-2.1-23.5,6.42-23.5h347.64
			C1241.17,882.97,1245.3,898.06,1239.07,906.48z"/>
		<path id="Line_3_" class="st10" d="M1239.07,906.48l-19.08,43.3c-16.4,37.22-44.43,60.72-74.9,61.61
			c-0.74,0.02-171.8,0.02-172.53,0c-30.47-0.89-58.5-24.4-74.9-61.61l-19.08-43.3c-6.22-8.42-2.1-23.5,6.42-23.5h347.64
			C1241.17,882.97,1245.3,898.06,1239.07,906.48z"/>
	</g>
	<g id="Capsula_5_" class="st4">
		<path id="Fill_13_" class="st11" d="M1193.81,740.8c0-46.05-60.43-110.38-134.98-110.38S923.84,694.75,923.84,740.8v102.34h269.97
			V740.8z"/>
		<path id="Line_12_" class="st12" d="M1193.81,740.8c0-46.05-60.43-110.38-134.98-110.38S923.84,694.75,923.84,740.8v102.34h269.97
			V740.8z"/>
	</g>
	<g id="Chasis_4_" class="st4">
		<g id="Fill_2_">
			<polygon class="st13" points="914.2,829.39 1203.45,829.39 1231.2,853.32 886.45,853.32 			"/>
			<polygon class="st14" points="886.45,853.32 858.51,930.11 861.82,942.23 873.79,948.02 1248.56,947.19 1260.83,935.04 
				1231.2,853.32 			"/>
		</g>
		<path id="Line_2_" class="st15" d="M1243.59,948.02h-369.8c-10.6,0-17.98-10.54-14.35-20.5l27.01-74.2l27.75-23.93h289.25
			l27.75,23.93l26.76,74.24C1261.55,937.52,1254.17,948.02,1243.59,948.02z"/>
		<line id="Separador_1_" class="st16" x1="1231.2" y1="853.32" x2="886.45" y2="853.32"/>
	</g>
</g>
<g id="UFO_2">
	<path class="st17" d="M616.74,567.35c83.99-22.08,198.92-43.36,336.1-43.05c134.37,0.31,247.13,21.24,330.1,43.05"/>
	<path class="st18" d="M1295.38,626.23v-47.28c-86.07-23.14-204.87-45.79-347.1-45.52c-139.81,0.27-256.75,22.6-341.96,45.52
		l-8.95,41.2"/>
	<path id="Fill_6_" class="st19" d="M1137.68,388.09v426.37c0,10.15-8.22,18.37-18.37,18.37h-105.85
		c-10.15,0-18.37-8.22-18.37-18.37V692.77c0-10.15-8.22-18.37-18.37-18.37h-52.4c-10.15,0-18.37,8.22-18.37,18.37v121.69
		c0,10.15-8.22,18.37-18.37,18.37H781.73c-10.15,0-18.37-8.22-18.37-18.37V388.09c0-64.91,52.62-117.54,117.54-117.54h139.24
		C1085.06,270.55,1137.68,323.18,1137.68,388.09z"/>
	<path class="st6" d="M1047.88,459.06h-15.27c-4.19,0-7.58-3.39-7.58-7.58v-91.33c0-4.19,3.39-7.58,7.58-7.58h15.27
		c4.19,0,7.58,3.39,7.58,7.58v91.33C1055.46,455.67,1052.07,459.06,1047.88,459.06z"/>
	<path class="st6" d="M928.89,459.06h-15.27c-4.19,0-7.58-3.39-7.58-7.58v-91.33c0-4.19,3.39-7.58,7.58-7.58h15.27
		c4.19,0,7.58,3.39,7.58,7.58v91.33C936.47,455.67,933.08,459.06,928.89,459.06z"/>
	<g>
		<defs>
			<path id="Fill_5_" d="M1380.24,733.68l-45.45,86.93c-68.42,76.28-139.85,109.29-178.43,123.68
				c-70.95,26.45-130.04,26.86-199.73,27.34c-72.68,0.5-135.94,0.94-211.29-27.34c-38.96-14.62-110.27-47.84-178.43-123.68
				l-45.45-86.93c-14.83-16.9-5.01-47.18,15.3-47.18h828.18C1385.24,686.5,1395.07,716.78,1380.24,733.68z"/>
		</defs>
		<use xlink:href="#Fill_5_"  style="overflow:visible;fill:#444444;"/>
		<clipPath id="Fill_14_">
			<use xlink:href="#Fill_5_"  style="overflow:visible;"/>
		</clipPath>
		<path class="st20" d="M799.99,958.89l-80.42-34.99c0,0,72.52,20.28,90.77,17.75c1.36-0.19,4.41-0.53,6.04-2.78
			c3.7-5.13-3.07-15.62-5.03-18.51c7.92,6.19,21.03,14.67,39.05,19.27c17.48,4.46,31.56,3.22,38.54,2.54
			c17.18-1.67,30.6-6.73,39.05-10.65c6.65,11.47,19.1,18.2,31.95,17.24c17.41-1.29,26.17-16,26.88-17.24c0,0,8.11,10.14,39.05,10.65
			c30.93,0.51,98.89-26.37,98.89-26.37c-11.16,11.16-38.54,23.33-20.28,25.86c18.26,2.54,90.77-17.75,90.77-17.75l-80.42,34.99
			c-42.77,7.78-94.53,13.93-153.36,14.2C899.15,973.38,844.57,967,799.99,958.89z"/>
		<path class="st21" d="M1291.33,866.03c-77.55,24.37-192.12,50.97-332.41,50.77c-138.79-0.19-252.24-26.54-329.36-50.77
			l-36.13-29.48l196.63,21.3l160.46,15.21l123.26-7.12l245.59-36.81l3.15,18.83L1291.33,866.03z"/>
	</g>
	<path id="Line_5_" class="st10" d="M1346.86,733.74l-4.81,86.87c-68.42,76.28-139.85,109.29-178.43,123.68
		c-70.95,26.45-130.04,26.86-199.73,27.34c-72.68,0.5-135.94,0.94-211.29-27.34c-38.96-14.62-110.27-47.84-178.43-123.68l3.93-87.76
		c-14.83-16.9-5.01-47.18,15.3-47.18l725.34,0.84C1339.04,686.5,1361.69,716.84,1346.86,733.74z"/>
	<path id="Fill_4_" class="st11" d="M1295.38,379.25c-6.87-25.28-32.79-107.83-114.85-168.36c-81.41-60.06-176.66-58.52-230.94-58.2
		c-44.38,0.26-113.68-0.37-184.76,40.07c-101.38,57.69-111.69,97.74-146.03,188.41c-20.15,71.97-9.42,143.28,2.12,214.57
		c99.49,14.04,216.07,23.84,346.31,22.41c112.78-1.24,214.74-10.67,303.66-23.53C1282.27,568.06,1323.14,481.47,1295.38,379.25z"/>
	<path id="Line_4_" class="st12" d="M948.19,152.69c-433.43,0-334.74,419.85-334.74,419.85C710.6,586.82,837,597.05,965.1,596.07
		c114.13-0.87,228.94-10.46,317.84-23.53C1326.72,437.96,1327.62,152.69,948.19,152.69z"/>
	<g>
		<defs>
			<path id="XMLID_2_" d="M606.31,578.95c101.69,14.82,220.51,25.43,353.13,24.95c125.53-0.45,238.46-10.75,335.93-24.95
				c20.94,17.92,30.8,29.18,47.11,48.04c-118.6,15.45-234.72,26.25-383.56,26.63c-155.38,0.4-275.48-10.64-398.2-26.63
				C575.3,607.47,584.27,594.96,606.31,578.95z"/>
		</defs>
		<use xlink:href="#XMLID_2_"  style="overflow:visible;fill:#FF900B;"/>
		<clipPath id="XMLID_8_">
			<use xlink:href="#XMLID_2_"  style="overflow:visible;"/>
		</clipPath>
		<path class="st22" d="M582.94,602.28c107.35,17.3,235.29,30.19,379.51,29.55c135.58-0.6,256.43-13.03,358.92-29.55"/>
	</g>
	<g>
		<defs>
			<path id="XMLID_1_" d="M560.06,629.53l-90.77,151.6l7.89,24.31l28.53,11.63c113.56,28.15,265.66,54.36,445.84,54.09
				c180.79-0.27,333.27-27.12,446.97-55.75c9.74-8.13,19.48-16.26,29.22-24.39c-9.66-24.83-21.59-51.89-36.38-80.36
				c-15.77-30.34-32.12-57.13-47.85-80.39c-154.76,17.72-284.4,28.66-383.82,29.05C802.63,659.93,683.97,645.68,560.06,629.53z"/>
		</defs>
		<use xlink:href="#XMLID_1_"  style="overflow:visible;fill:#152C75;"/>
		<clipPath id="XMLID_9_">
			<use xlink:href="#XMLID_1_"  style="overflow:visible;"/>
		</clipPath>
		<polygon class="st23" points="1160.4,651.81 1172.92,691.39 1193.33,788.38 1196.38,846.57 1314.28,827.3 1313.64,801.43 
			1280.92,651.33 1274.36,638.5 		"/>
		<path class="st24" d="M1276.81,639.54c10.24,23.85,20.9,53.97,28.52,89.63c7.8,36.46,10.34,68.98,10.65,95.34"/>
		<path class="st25" d="M1240.37,657.67c13.25-1.6,26.6-3.29,40.06-5.07c19.53-2.58,38.8-5.29,57.81-8.11
			c11.87,19.5,25.04,44.77,36,75.56c10.85,30.46,16.63,58.09,19.78,80.53c-42.6,5.3-85.19,10.59-127.79,15.89
			c0.08-22.6-1.4-49.2-6.09-78.67C1255.21,706.81,1247.88,679.89,1240.37,657.67z"/>
		<polyline class="st23" points="633.62,638.61 748.21,650.58 709.5,744.55 676.94,844.94 566.82,824.25 569.69,797.33 
			586.38,750.05 616.4,675.12 633.62,638.61 		"/>
		<path class="st26" d="M754.37,640.39c-11.31,23.93-27.31,59.76-43.61,104.46c-24.72,67.79-37.09,101.69-32.45,117.65
			c31.36,108.08,479.7,127.75,514.2,19.27c1.39-4.38,1.72-7.72,2.03-12.17c2.82-40.16,0.83-113.85-38.79-227.18"/>
		<use xlink:href="#XMLID_1_"  style="overflow:visible;fill:none;stroke:#020202;stroke-width:8;stroke-miterlimit:10;"/>
	</g>
	<g id="Capa_15">
	</g>
	<g id="Detalles_Chasis">
		<polygon class="st27" points="880.46,658.34 860.04,757.06 853.95,865.94 1013.69,865.94 1034,869.19 1031.19,775.51 
			1020.07,685.67 1014.26,657.32 		"/>
		<path class="st10" d="M853.95,865.94c0.45-35.25,2.98-74.92,9.13-118.01c4.84-33.92,11.23-65.06,18.26-93.14"/>
		<path class="st10" d="M568.08,824.55c0.45-35.25,16-60.11,29.28-101.56c10.82-33.76,26.47-57.25,38.87-84.57"/>
		<path class="st10" d="M1013.69,654.8c6.13,27.04,11.53,57.18,15.21,90.1c5.01,44.76,5.85,85.52,4.56,121.05"/>
	</g>
	<g id="Cannon_1_">
		<path id="Separador_3_" class="st10" d="M1340.3,629.67c-118.6,15.45-231.78,27.26-380.62,27.64
			c-155.38,0.39-272.57-11.8-395.29-27.79"/>
		<path id="Line_15_" class="st10" d="M948.28,871.12c-176.91-0.22-460.69-58.29-468.04-67.12c-4.14-4.98-6.54-10.98-6.61-17.27
			c-0.06-5.16,1.5-9.06,2.22-10.8c27.15-64.95,45.44-92.9,45.44-92.9c9.97-15.23,23.1-34.4,39.43-56.04
			c7.27-7.95,34.56-40.03,45.58-48.04c100.32,14.62,217.41,25.16,348.05,24.97c127.74-0.19,242.41-10.6,341.02-24.97
			c22.04,16.01,32.85,31.69,45.58,48.04c14.06,18.05,29.25,39.28,43.79,64.11c17.98,30.72,30.99,59.71,40.49,84.92
			c0.93,2.09,2.24,5.95,2.18,10.74c-0.12,9.88-6,19.03-15.29,24.64C1406.25,814.94,1127.27,871.34,948.28,871.12z"/>
		<path class="st28" d="M1341.84,786.79h-41.31c-5.51-13.34-12.58-35.38-12.42-63.21c0.15-26.88,6.99-48.22,12.42-61.39
			c13.77,0,27.54,0,41.31,0c-5.72,12.14-13.72,33.35-14.04,60.64C1327.47,751.89,1336.01,774.41,1341.84,786.79z"/>
		<path class="st29" d="M1378.18,793.32h-45.21c-6.03-14.84-13.77-39.34-13.59-70.27c0.17-29.89,7.65-53.61,13.59-68.25
			c15.07,0,30.14,0,45.21,0c-6.26,13.5-15.02,37.08-15.37,67.42C1362.45,754.52,1371.8,779.55,1378.18,793.32z"/>
		<path class="st30" d="M1437.38,800.58h-60.42c-6.25-16.38-14.27-43.4-14.11-77.53c0.16-33.08,7.94-59.32,14.11-75.5
			c20.14,0,40.28,0,60.42,0c-8.37,14.92-10.91,40.96-11.37,74.47C1425.52,757.72,1428.85,785.37,1437.38,800.58z"/>
		<g>
			<g>
				<path class="st31" d="M1435.61,816.46h60.81c8.11-20.02,18.51-53.09,18.28-94.84c-0.22-40.34-10.29-72.35-18.28-92.1
					c-20.27,0-40.54,0-60.81,0c8.42,18.22,20.2,50.03,20.67,90.98C1456.77,764.11,1444.2,797.89,1435.61,816.46z"/>
			</g>
			<path class="st8" d="M1491.11,816.46h-60.81c-8.11-20.02-18.51-53.09-18.28-94.84c0.22-40.34,10.29-72.35,18.28-92.1
				c20.27,0,40.54,0,60.81,0c-8.42,18.22-20.2,50.03-20.67,90.98C1469.95,764.11,1482.53,797.89,1491.11,816.46z"/>
		</g>
		<path class="st32" d="M1505.03,725.59c0,30.47-5.95,56.86-9.45,69.71c-0.68,2.52-4.26,2.52-4.94,0
			c-3.49-12.85-9.45-39.24-9.45-69.71s5.95-56.86,9.45-69.71c0.68-2.52,4.26-2.52,4.94,0
			C1499.08,668.74,1505.03,695.13,1505.03,725.59z"/>
	</g>
</g>
<g id="UFO_3" class="st0">
	<path class="st33" d="M1195.48,542.3c38.02-9.99,90.05-19.63,152.15-19.49c60.83,0.14,111.87,9.61,149.43,19.49"/>
	<path class="st34" d="M1502.69,568.96v-21.4c-38.96-10.48-92.74-20.73-157.13-20.6c-63.29,0.12-116.23,10.23-154.8,20.6
		l-4.05,18.65"/>
	<path id="Fill_9_" class="st35" d="M1431.3,461.15v193.01c0,4.59-3.72,8.32-8.32,8.32h-47.92c-4.59,0-8.32-3.72-8.32-8.32v-55.09
		c0-4.59-3.72-8.32-8.32-8.32h-23.72c-4.59,0-8.32,3.72-8.32,8.32v55.09c0,4.59-3.72,8.32-8.32,8.32h-47.92
		c-4.59,0-8.32-3.72-8.32-8.32V461.15c0-29.39,23.82-53.21,53.21-53.21h63.03C1407.48,407.95,1431.3,431.77,1431.3,461.15z"/>
	<path class="st36" d="M1392.18,493.28h-9.97c-1.05,0-1.9-0.85-1.9-1.9v-44.4c0-1.05,0.85-1.9,1.9-1.9h9.97c1.05,0,1.9,0.85,1.9,1.9
		v44.4C1394.08,492.43,1393.23,493.28,1392.18,493.28z"/>
	<path class="st36" d="M1338.31,493.28h-9.97c-1.05,0-1.9-0.85-1.9-1.9v-44.4c0-1.05,0.85-1.9,1.9-1.9h9.97c1.05,0,1.9,0.85,1.9,1.9
		v44.4C1340.22,492.43,1339.36,493.28,1338.31,493.28z"/>
	<g class="st4">
		<defs>
			<path id="Fill_8_" d="M1541.1,617.6l-20.58,39.35c-30.97,34.53-63.31,49.48-80.77,55.99c-32.12,11.97-58.87,12.16-90.42,12.38
				c-32.9,0.23-61.54,0.43-95.65-12.38c-17.64-6.62-49.92-21.66-80.77-55.99l-20.58-39.35c-6.71-7.65-2.27-21.36,6.93-21.36h374.91
				C1543.37,596.24,1547.82,609.95,1541.1,617.6z"/>
		</defs>
		<use xlink:href="#Fill_8_"  style="overflow:visible;fill:#444444;"/>
		<clipPath id="Fill_15_">
			<use xlink:href="#Fill_8_"  style="overflow:visible;"/>
		</clipPath>
		<path class="st37" d="M1274.26,725.51l-36.4-21.2c0,0,32.83,12.29,41.09,10.75c0.62-0.11,2-0.32,2.73-1.69
			c1.67-3.11-1.39-9.46-2.27-11.22c3.58,3.75,9.52,8.89,17.68,11.68c7.91,2.7,14.29,1.95,17.45,1.54
			c7.78-1.01,13.85-4.08,17.68-6.45c3.01,6.95,8.65,11.02,14.46,10.45c7.88-0.78,11.85-9.69,12.17-10.45c0,0,3.67,6.15,17.68,6.45
			c14,0.31,44.76-15.98,44.76-15.98c-5.05,6.76-17.45,14.13-9.18,15.67s41.09-10.75,41.09-10.75l-36.4,21.2
			c-19.36,4.72-42.79,8.44-69.42,8.6C1319.15,734.29,1294.44,730.43,1274.26,725.51z"/>
		<path class="st38" d="M1500.86,677.51c-35.1,11.03-86.97,23.07-150.48,22.98c-62.83-0.09-114.19-12.01-149.1-22.98l-16.36-13.34
			l89.01,9.64l72.64,6.89l55.8-3.22l111.17-16.66l1.43,8.53L1500.86,677.51z"/>
	</g>
	<path id="Line_8_" class="st39" d="M1525.99,617.62l-2.18,39.33c-30.97,34.53-63.31,49.48-80.77,55.99
		c-32.12,11.97-58.87,12.16-90.42,12.38c-32.9,0.23-61.54,0.43-95.65-12.38c-17.64-6.62-49.92-21.66-80.77-55.99l1.78-39.73
		c-6.71-7.65-2.27-21.36,6.93-21.36l328.35,0.38C1522.46,596.24,1532.7,609.97,1525.99,617.62z"/>
	<path id="Fill_7_" class="st40" d="M1502.69,460.77c-3.11-11.45-14.85-48.81-51.99-76.21c-36.86-27.19-79.97-26.49-104.54-26.35
		c-20.09,0.12-51.46-0.17-83.64,18.14c-45.89,26.12-50.56,44.25-66.11,85.29c-9.12,32.58-4.27,64.86,0.96,97.13
		c45.04,6.36,97.81,10.79,156.77,10.14c51.05-0.56,97.21-4.83,137.46-10.65C1496.75,546.25,1515.25,507.05,1502.69,460.77z"/>
	<path id="Line_7_" class="st41" d="M1345.52,358.21c-196.21,0-151.53,190.06-151.53,190.06c43.98,6.47,101.2,11.09,159.19,10.65
		c51.67-0.39,103.64-4.74,143.88-10.65C1516.88,487.35,1517.28,358.21,1345.52,358.21z"/>
	<g class="st4">
		<defs>
			<path id="XMLID_4_" d="M1189.93,547.55c46.31,7.48,100.42,12.83,160.82,12.59c57.17-0.23,108.6-5.43,152.99-12.59
				c9.54,9.05,14.03,14.73,21.45,24.24c-54.01,7.8-106.89,13.25-174.68,13.44c-70.76,0.2-125.46-5.37-181.34-13.44
				C1175.8,561.95,1179.89,555.63,1189.93,547.55z"/>
		</defs>
		<use xlink:href="#XMLID_4_"  style="overflow:visible;fill:#FF900B;"/>
		<clipPath id="XMLID_10_">
			<use xlink:href="#XMLID_4_"  style="overflow:visible;"/>
		</clipPath>
		<path class="st42" d="M1179.28,559.33c48.89,8.73,107.15,15.23,172.83,14.91c61.75-0.3,116.78-6.57,163.46-14.91"/>
	</g>
	<g class="st4">
		<defs>
			<path id="XMLID_3_" d="M1169.82,570.45l-41.09,68.63l3.57,11l12.91,5.26c51.41,12.74,120.26,24.61,201.83,24.49
				c81.84-0.12,150.87-12.28,202.34-25.24c4.41-3.68,8.82-7.36,13.23-11.04c-4.37-11.24-9.77-23.49-16.47-36.38
				c-7.14-13.73-14.54-25.86-21.66-36.39c-70.06,8.02-128.74,12.97-173.75,13.15C1279.63,584.21,1225.91,577.76,1169.82,570.45z"/>
		</defs>
		<use xlink:href="#XMLID_3_"  style="overflow:visible;fill:#152C75;"/>
		<clipPath id="XMLID_11_">
			<use xlink:href="#XMLID_3_"  style="overflow:visible;"/>
		</clipPath>
		<polygon class="st43" points="1441.59,580.54 1447.25,598.46 1456.49,642.36 1457.87,668.7 1511.24,659.98 1510.96,648.27 
			1496.14,580.32 1493.17,574.51 		"/>
		<path class="st44" d="M1494.28,574.98c4.64,10.8,9.46,24.43,12.91,40.57c3.53,16.51,4.68,31.23,4.82,43.16"/>
		<path class="st45" d="M1477.78,583.19c6-0.73,12.04-1.49,18.14-2.3c8.84-1.17,17.57-2.4,26.17-3.67
			c5.38,8.83,11.33,20.27,16.3,34.2c4.91,13.79,7.53,26.3,8.95,36.46c-19.28,2.4-38.57,4.79-57.85,7.19
			c0.03-10.23-0.63-22.27-2.75-35.61C1484.51,605.43,1481.19,593.25,1477.78,583.19z"/>
		<polyline class="st43" points="1203.12,574.56 1254.99,579.98 1237.47,622.52 1222.73,667.97 1172.88,658.6 1174.18,646.41 
			1181.73,625.01 1195.32,591.09 1203.12,574.56 		"/>
		<path class="st46" d="M1257.78,575.37c-5.12,10.83-12.36,27.05-19.74,47.29c-11.19,30.69-16.79,46.03-14.69,53.26
			c14.2,48.93,217.15,57.83,232.77,8.72c0.63-1.98,0.78-3.5,0.92-5.51c1.28-18.18,0.38-51.54-17.56-102.84"/>
	</g>
	<polygon class="st47" points="1314.86,583.49 1305.62,628.18 1302.86,677.47 1375.17,677.47 1384.37,678.94 1383.09,636.53 
		1378.06,595.86 1375.43,583.03 	"/>
	<path class="st39" d="M1302.86,677.47c0.2-15.96,1.35-33.92,4.13-53.42c2.19-15.35,5.08-29.45,8.26-42.16"/>
	<path class="st39" d="M1173.45,658.74c0.2-15.96,7.24-27.21,13.25-45.97c4.9-15.28,11.98-25.92,17.6-38.29"/>
	<path class="st39" d="M1375.17,581.89c2.77,12.24,5.22,25.88,6.89,40.79c2.27,20.26,2.65,38.71,2.07,54.8"/>
	<path id="Line_6_" class="st39" d="M1345.56,679.82c-80.09-0.1-208.55-26.39-211.87-30.39c-1.87-2.25-2.96-4.97-2.99-7.82
		c-0.03-2.33,0.68-4.1,1.01-4.89c12.29-29.4,20.57-42.05,20.57-42.05c4.51-6.89,10.46-15.57,17.85-25.37
		c3.29-3.6,15.65-18.12,20.63-21.75c45.41,6.62,98.42,11.39,157.56,11.3c57.82-0.09,109.74-4.8,154.37-11.3
		c9.98,7.25,14.87,14.35,20.63,21.75c6.36,8.17,13.24,17.78,19.82,29.02c8.14,13.91,14.03,27.03,18.33,38.44
		c0.42,0.95,1.01,2.7,0.99,4.86c-0.05,4.47-2.71,8.62-6.92,11.15C1552.88,654.38,1426.59,679.91,1345.56,679.82z"/>
	<path class="st48" d="M1523.72,641.64h-18.7c-2.49-6.04-5.69-16.02-5.62-28.61c0.07-12.17,3.16-21.83,5.62-27.79
		c6.23,0,12.47,0,18.7,0c-2.59,5.5-6.21,15.1-6.35,27.45C1517.21,625.84,1521.08,636.04,1523.72,641.64z"/>
	<path class="st49" d="M1540.17,644.6h-20.47c-2.73-6.72-6.23-17.81-6.15-31.81c0.08-13.53,3.46-24.27,6.15-30.9
		c6.82,0,13.65,0,20.47,0c-2.83,6.11-6.8,16.78-6.96,30.52C1533.05,627.03,1537.28,638.37,1540.17,644.6z"/>
	<path class="st50" d="M1566.97,647.88h-27.35c-2.83-7.41-6.46-19.65-6.39-35.09c0.07-14.97,3.59-26.85,6.39-34.18
		c9.12,0,18.23,0,27.35,0c-3.79,6.75-4.94,18.54-5.15,33.71C1561.6,628.48,1563.11,641,1566.97,647.88z"/>
	<g class="st4">
		<g>
			<path class="st51" d="M1566.17,655.07h27.53c3.67-9.06,8.38-24.03,8.28-42.93c-0.1-18.26-4.66-32.75-8.28-41.69
				c-9.18,0-18.35,0-27.53,0c3.81,8.25,9.15,22.65,9.36,41.18C1575.75,631.37,1570.06,646.66,1566.17,655.07z"/>
		</g>
		<path class="st52" d="M1591.29,655.07h-27.53c-3.67-9.06-8.38-24.03-8.28-42.93c0.1-18.26,4.66-32.75,8.28-41.69
			c9.18,0,18.35,0,27.53,0c-3.81,8.25-9.15,22.65-9.36,41.18C1581.72,631.37,1587.41,646.66,1591.29,655.07z"/>
	</g>
	<path class="st53" d="M1597.6,613.94c0,13.79-2.7,25.74-4.28,31.56c-0.31,1.14-1.93,1.14-2.24,0c-1.58-5.82-4.28-17.76-4.28-31.56
		s2.7-25.74,4.28-31.56c0.31-1.14,1.93-1.14,2.24,0C1594.9,588.2,1597.6,600.15,1597.6,613.94z"/>
</g>
<g id="UFO_4" class="st0">
	<path class="st33" d="M876.56,575.41c9.53-2.5,22.56-4.92,38.12-4.88c15.24,0.03,28.97,2.41,38.38,4.88"/>
	<path class="st34" d="M953.54,580.65v-5.36c-9.76-2.63-23.24-5.19-39.37-5.16c-15.86,0.03-29.12,2.56-38.79,5.16l-1.02,4.67"/>
	<path id="Fill_12_" class="st35" d="M935.65,553.64v48.36c0,1.15-0.93,2.08-2.08,2.08h-12.01c-1.15,0-2.08-0.93-2.08-2.08v-13.8
		c0-1.15-0.93-2.08-2.08-2.08h-5.94c-1.15,0-2.08,0.93-2.08,2.08v13.8c0,1.15-0.93,2.08-2.08,2.08h-12.01
		c-1.15,0-2.08-0.93-2.08-2.08v-48.36c0-7.36,5.97-13.33,13.33-13.33h15.79C929.69,540.31,935.65,546.28,935.65,553.64z"/>
	<path class="st36" d="M925.47,561.69h-1.73c-0.48,0-0.86-0.39-0.86-0.86v-10.35c0-0.48,0.39-0.86,0.86-0.86h1.73
		c0.48,0,0.86,0.39,0.86,0.86v10.35C926.33,561.31,925.94,561.69,925.47,561.69z"/>
	<path class="st36" d="M911.97,561.69h-1.73c-0.48,0-0.86-0.39-0.86-0.86v-10.35c0-0.48,0.39-0.86,0.86-0.86h1.73
		c0.48,0,0.86,0.39,0.86,0.86v10.35C912.83,561.31,912.44,561.69,911.97,561.69z"/>
	<g class="st4">
		<defs>
			<path id="Fill_11_" d="M963.17,592.84l-5.16,9.86c-7.76,8.65-15.86,12.4-20.24,14.03c-8.05,3-14.75,3.05-22.66,3.1
				c-8.24,0.06-15.42,0.11-23.97-3.1c-4.42-1.66-12.51-5.43-20.24-14.03l-5.16-9.86c-1.68-1.92-0.57-5.35,1.74-5.35h93.94
				C963.74,587.49,964.85,590.93,963.17,592.84z"/>
		</defs>
		<use xlink:href="#Fill_11_"  style="overflow:visible;fill:#444444;"/>
		<clipPath id="Fill_16_">
			<use xlink:href="#Fill_11_"  style="overflow:visible;"/>
		</clipPath>
		<path class="st54" d="M896.3,619.88l-9.12-5.31c0,0,8.23,3.08,10.3,2.69c0.15-0.03,0.5-0.08,0.69-0.42
			c0.42-0.78-0.35-2.37-0.57-2.81c0.9,0.94,2.39,2.23,4.43,2.93c1.98,0.68,3.58,0.49,4.37,0.38c1.95-0.25,3.47-1.02,4.43-1.62
			c0.75,1.74,2.17,2.76,3.62,2.62c1.98-0.2,2.97-2.43,3.05-2.62c0,0,0.92,1.54,4.43,1.62c3.51,0.08,11.22-4,11.22-4
			c-1.27,1.69-4.37,3.54-2.3,3.93s10.3-2.69,10.3-2.69l-9.12,5.31c-4.85,1.18-10.72,2.11-17.4,2.16
			C907.55,622.08,901.36,621.12,896.3,619.88z"/>
		<path class="st55" d="M953.08,607.86c-8.8,2.76-21.79,5.78-37.71,5.76c-15.74-0.02-28.61-3.01-37.36-5.76l-4.1-3.34l22.3,2.42
			l18.2,1.73l13.98-0.81l27.86-4.18l0.36,2.14L953.08,607.86z"/>
	</g>
	<path id="Line_11_" class="st39" d="M959.38,592.85l-0.55,9.85c-7.76,8.65-15.86,12.4-20.24,14.03c-8.05,3-14.75,3.05-22.66,3.1
		c-8.24,0.06-15.42,0.11-23.97-3.1c-4.42-1.66-12.51-5.43-20.24-14.03l0.45-9.96c-1.68-1.92-0.57-5.35,1.74-5.35l82.28,0.1
		C958.5,587.49,961.06,590.93,959.38,592.85z"/>
	<path id="Fill_10_" class="st40" d="M954.57,553.42c-0.79-2.88-3.77-12.29-13.2-19.19c-9.36-6.85-20.3-6.67-26.54-6.63
		c-5.1,0.03-13.07-0.04-21.23,4.57c-11.65,6.58-12.84,11.14-16.78,21.47c-2.32,8.2-1.08,16.33,0.24,24.46
		c11.43,1.6,24.83,2.72,39.8,2.55c12.96-0.14,24.68-1.22,34.9-2.68C953.06,574.94,957.76,565.07,954.57,553.42z"/>
	<path id="Line_10_" class="st56" d="M914.6,527.85c-49.71,0-38.39,47.63-38.39,47.63c11.14,1.62,25.64,2.78,40.33,2.67
		c13.09-0.1,26.26-1.19,36.45-2.67C958.01,560.21,958.11,527.85,914.6,527.85z"/>
	<g class="st4">
		<defs>
			<path id="XMLID_6_" d="M875.17,575.29c11.6,1.87,25.16,3.22,40.3,3.16c14.33-0.06,27.21-1.36,38.33-3.16
				c2.39,2.27,3.51,3.69,5.38,6.07c-13.53,1.95-26.78,3.32-43.77,3.37c-17.73,0.05-31.44-1.35-45.44-3.37
				C871.63,578.9,872.66,577.32,875.17,575.29z"/>
		</defs>
		<use xlink:href="#XMLID_6_"  style="overflow:visible;fill:#FF900B;"/>
		<clipPath id="XMLID_12_">
			<use xlink:href="#XMLID_6_"  style="overflow:visible;"/>
		</clipPath>
		<path class="st57" d="M872.51,578.24c12.25,2.19,26.85,3.82,43.31,3.74c15.47-0.08,29.26-1.65,40.96-3.74"/>
	</g>
	<g class="st4">
		<defs>
			<path id="XMLID_5_" d="M870.13,581.03l-10.3,17.2l0.9,2.76l3.24,1.32c12.88,3.19,30.13,6.17,50.57,6.14
				c20.51-0.03,37.8-3.08,50.7-6.32c1.1-0.92,2.21-1.84,3.31-2.77c-1.1-2.82-2.45-5.89-4.13-9.12c-1.79-3.44-3.64-6.48-5.43-9.12
				c-17.55,2.01-32.26,3.25-43.54,3.29C897.65,584.48,884.19,582.86,870.13,581.03z"/>
		</defs>
		<use xlink:href="#XMLID_5_"  style="overflow:visible;fill:#152C75;"/>
		<clipPath id="XMLID_13_">
			<use xlink:href="#XMLID_5_"  style="overflow:visible;"/>
		</clipPath>
		<polygon class="st58" points="938.23,583.56 939.65,588.05 941.97,599.05 942.31,605.65 955.69,603.46 955.61,600.53 951.9,583.5 
			951.16,582.05 		"/>
		<path class="st59" d="M951.44,582.16c1.16,2.71,2.37,6.12,3.24,10.17c0.88,4.14,1.17,7.82,1.21,10.81"/>
		<path class="st60" d="M947.3,584.22c1.5-0.18,3.02-0.37,4.54-0.58c2.22-0.29,4.4-0.6,6.56-0.92c1.35,2.21,2.84,5.08,4.08,8.57
			c1.23,3.46,1.89,6.59,2.24,9.13c-4.83,0.6-9.66,1.2-14.5,1.8c0.01-2.56-0.16-5.58-0.69-8.92
			C948.99,589.8,948.16,586.74,947.3,584.22z"/>
		<polyline class="st58" points="878.48,582.06 891.48,583.42 887.08,594.08 883.39,605.46 870.9,603.12 871.23,600.06 
			873.12,594.7 876.52,586.2 878.48,582.06 		"/>
		<path class="st61" d="M892.17,582.26c-1.28,2.71-3.1,6.78-4.95,11.85c-2.8,7.69-4.21,11.53-3.68,13.35
			c3.56,12.26,54.41,14.49,58.33,2.19c0.16-0.5,0.19-0.88,0.23-1.38c0.32-4.56,0.09-12.91-4.4-25.77"/>
	</g>
	<polygon class="st47" points="906.48,584.3 904.16,595.5 903.47,607.85 921.59,607.85 923.89,608.21 923.57,597.59 922.31,587.4 
		921.65,584.18 	"/>
	<path class="st39" d="M903.47,607.85c0.05-4,0.34-8.5,1.04-13.39c0.55-3.85,1.27-7.38,2.07-10.56"/>
	<path class="st39" d="M871.04,603.15c0.05-4,1.81-6.82,3.32-11.52c1.23-3.83,3-6.49,4.41-9.59"/>
	<path class="st39" d="M921.59,583.9c0.7,3.07,1.31,6.49,1.73,10.22c0.57,5.08,0.66,9.7,0.52,13.73"/>
	<path id="Line_9_" class="st39" d="M914.17,608.43c-20.07-0.02-52.26-6.61-53.09-7.61c-0.47-0.56-0.74-1.25-0.75-1.96
		c-0.01-0.58,0.17-1.03,0.25-1.23c3.08-7.37,5.15-10.54,5.15-10.54c1.13-1.73,2.62-3.9,4.47-6.36c0.82-0.9,3.92-4.54,5.17-5.45
		c11.38,1.66,24.66,2.85,39.48,2.83c14.49-0.02,27.5-1.2,38.68-2.83c2.5,1.82,3.73,3.59,5.17,5.45c1.59,2.05,3.32,4.46,4.97,7.27
		c2.04,3.48,3.51,6.77,4.59,9.63c0.11,0.24,0.25,0.68,0.25,1.22c-0.01,1.12-0.68,2.16-1.73,2.79
		C966.12,602.06,934.47,608.46,914.17,608.43z"/>
	<path class="st48" d="M958.81,598.87h-4.69c-0.62-1.51-1.43-4.01-1.41-7.17c0.02-3.05,0.79-5.47,1.41-6.96c1.56,0,3.12,0,4.69,0
		c-0.65,1.38-1.56,3.78-1.59,6.88C957.18,594.91,958.15,597.46,958.81,598.87z"/>
	<path class="st49" d="M962.94,599.61h-5.13c-0.68-1.68-1.56-4.46-1.54-7.97c0.02-3.39,0.87-6.08,1.54-7.74c1.71,0,3.42,0,5.13,0
		c-0.71,1.53-1.7,4.21-1.74,7.65C961.15,595.21,962.21,598.05,962.94,599.61z"/>
	<path class="st50" d="M969.65,600.43h-6.85c-0.71-1.86-1.62-4.92-1.6-8.79c0.02-3.75,0.9-6.73,1.6-8.56c2.28,0,4.57,0,6.85,0
		c-0.95,1.69-1.24,4.65-1.29,8.45C968.31,595.57,968.68,598.71,969.65,600.43z"/>
	<g class="st4">
		<g>
			<path class="st51" d="M969.45,602.23h6.9c0.92-2.27,2.1-6.02,2.07-10.76c-0.03-4.58-1.17-8.21-2.07-10.45c-2.3,0-4.6,0-6.9,0
				c0.96,2.07,2.29,5.68,2.34,10.32C971.85,596.29,970.42,600.13,969.45,602.23z"/>
		</g>
		<path class="st52" d="M975.75,602.23h-6.9c-0.92-2.27-2.1-6.02-2.07-10.76c0.03-4.58,1.17-8.21,2.07-10.45c2.3,0,4.6,0,6.9,0
			c-0.96,2.07-2.29,5.68-2.34,10.32C973.34,596.29,974.77,600.13,975.75,602.23z"/>
	</g>
	<path class="st53" d="M977.32,591.93c0,3.46-0.68,6.45-1.07,7.91c-0.08,0.29-0.48,0.29-0.56,0c-0.4-1.46-1.07-4.45-1.07-7.91
		s0.68-6.45,1.07-7.91c0.08-0.29,0.48-0.29,0.56,0C976.65,585.48,977.32,588.47,977.32,591.93z"/>
</g>
<g id="Personaje">
</g>
</svg>
